<?xml version="1.0" encoding="utf-8"?>
<!-- Generator: Adobe Illustrator 23.0.3, SVG Export Plug-In . SVG Version: 6.00 Build 0)  -->
<svg version="1.1" id="Icons" xmlns="http://www.w3.org/2000/svg" xmlns:xlink="http://www.w3.org/1999/xlink" x="0px" y="0px"
	 viewBox="0 0 32 32" style="enable-background:new 0 0 32 32;" xml:space="preserve">
<style type="text/css">
	.st0{fill:none;stroke:#000000;stroke-width:2;stroke-linecap:round;stroke-linejoin:round;stroke-miterlimit:10;}
</style>
<path class="st0" d="M6.2,13C5.4,14.5,5,16.2,5,18c0,6.1,4.9,11,11,11s11-4.9,11-11c0-1.8-0.4-3.5-1.2-5"/>
<line class="st0" x1="10" y1="20" x2="10" y2="22"/>
<line class="st0" x1="16" y1="21" x2="16" y2="23"/>
<line class="st0" x1="22" y1="20" x2="22" y2="22"/>
<line class="st0" x1="19" y1="24" x2="19" y2="26"/>
<line class="st0" x1="13" y1="24" x2="13" y2="26"/>
<polyline class="st0" points="4,4 9,4 12,14 "/>
<line class="st0" x1="25" y1="7" x2="19" y2="14"/>
<polyline class="st0" points="29,3 28,4 21,3 29,11 28,4 "/>
<path class="st0" d="M24.8,12.1c0.8,0.6,1.3,1.2,1.3,1.9c0,2.2-4.5,4-10.1,4S5.9,16.2,5.9,14c0-1.5,2-2.8,5.1-3.5"/>
<path class="st0" d="M14,10.1c0.7-0.1,1.3-0.1,2-0.1c2.1,0,4,0.3,5.6,0.7"/>
<path class="st0" d="M11,14L11,14c3.1,0.6,6.9,0.6,10,0l0,0"/>
</svg>
